<svg width="885" height="885" viewBox="0 0 885 885" fill="none" xmlns="http://www.w3.org/2000/svg">
<circle cx="442.5" cy="442.5" r="433.5" fill="black" stroke="#092821" stroke-width="18"/>
<path opacity="0.3" d="M642.488 129L726.572 163.811L726.572 730.726L688.976 740.672L642.488 755.591L642.488 129Z" fill="url(#paint0_linear_4329_456)"/>
<path opacity="0.3" d="M476.402 59L570.034 98.7836L570.034 790.023L476.402 824.834L476.402 59Z" fill="url(#paint1_linear_4329_456)"/>
<path opacity="0.3" d="M408.605 59L314.974 98.7836L314.974 790.023L408.605 824.834L408.605 59Z" fill="url(#paint2_linear_4329_456)"/>
<path opacity="0.3" d="M242.52 129L158.436 163.811L158.436 730.726L196.032 740.672L242.52 755.591L242.52 129Z" fill="url(#paint3_linear_4329_456)"/>
<g filter="url(#filter0_d_4329_456)">
<path d="M371.165 392.712H323.025C322.145 386.484 320.35 380.951 317.639 376.115C314.928 371.206 311.448 367.03 307.198 363.586C302.948 360.142 298.039 357.504 292.47 355.673C286.975 353.841 281.003 352.925 274.555 352.925C262.905 352.925 252.756 355.819 244.11 361.608C235.464 367.323 228.76 375.676 223.997 386.667C219.234 397.584 216.853 410.847 216.853 426.454C216.853 442.5 219.234 455.982 223.997 466.9C228.833 477.818 235.574 486.061 244.22 491.629C252.866 497.198 262.868 499.982 274.225 499.982C280.6 499.982 286.498 499.14 291.921 497.455C297.416 495.769 302.289 493.315 306.538 490.091C310.788 486.793 314.305 482.8 317.09 478.111C319.947 473.421 321.926 468.072 323.025 462.064L371.165 462.284C369.919 472.615 366.805 482.58 361.822 492.179C356.913 501.704 350.282 510.241 341.929 517.788C333.649 525.261 323.757 531.196 312.254 535.593C300.823 539.916 287.891 542.077 273.456 542.077C253.379 542.077 235.428 537.535 219.601 528.449C203.847 519.363 191.391 506.211 182.232 488.992C173.146 471.773 168.603 450.927 168.603 426.454C168.603 401.907 173.219 381.025 182.452 363.806C191.684 346.587 204.213 333.471 220.04 324.458C235.867 315.373 253.672 310.83 273.456 310.83C286.498 310.83 298.588 312.662 309.726 316.325C320.936 319.989 330.865 325.338 339.511 332.372C348.157 339.333 355.191 347.869 360.613 357.981C366.109 368.092 369.626 379.669 371.165 392.712ZM388.269 539V313.907H435.859V499.763H532.359V539H388.269ZM546.852 539V313.907H636.977C653.537 313.907 667.349 316.362 678.413 321.271C689.477 326.18 697.793 332.995 703.362 341.714C708.931 350.36 711.715 360.325 711.715 371.609C711.715 380.402 709.957 388.132 706.44 394.8C702.923 401.394 698.087 406.817 691.932 411.066C685.85 415.243 678.889 418.21 671.049 419.969V422.167C679.622 422.534 687.645 424.952 695.119 429.421C702.666 433.891 708.784 440.156 713.474 448.216C718.163 456.202 720.508 465.728 720.508 476.792C720.508 488.735 717.54 499.396 711.605 508.775C705.744 518.081 697.061 525.445 685.557 530.867C674.053 536.289 659.875 539 643.022 539H546.852ZM594.443 500.092H633.241C646.503 500.092 656.175 497.564 662.256 492.509C668.338 487.38 671.379 480.565 671.379 472.066C671.379 465.838 669.877 460.342 666.873 455.579C663.868 450.817 659.582 447.08 654.013 444.369C648.518 441.658 641.96 440.302 634.34 440.302H594.443V500.092ZM594.443 408.099H629.723C636.245 408.099 642.033 406.963 647.089 404.692C652.218 402.347 656.248 399.05 659.179 394.8C662.183 390.55 663.685 385.458 663.685 379.523C663.685 371.389 660.791 364.832 655.002 359.849C649.287 354.866 641.154 352.375 630.603 352.375H594.443V408.099Z" fill="white"/>
</g>
<g filter="url(#filter1_d_4329_456)" transform="translate(-443, -620) scale(2)">
<path d="M388.556 662.752C383.444 662.752 379.534 661.348 376.827 658.541C374.12 655.684 372.767 651.825 372.767 646.962V607.113H379.534V646.962C379.534 649.97 380.261 652.351 381.714 654.105C383.218 655.86 385.499 656.737 388.556 656.737C391.564 656.737 393.819 655.86 395.323 654.105C396.827 652.351 397.579 649.97 397.579 646.962V607.113H404.346V646.962C404.346 651.875 402.992 655.734 400.286 658.541C397.629 661.348 393.719 662.752 388.556 662.752ZM442.963 662.752C439.354 662.752 436.246 662.15 433.639 660.947C431.083 659.744 429.103 658.015 427.7 655.759C426.296 653.504 425.569 650.822 425.519 647.714H432.286C432.286 650.471 433.213 652.652 435.068 654.256C436.973 655.86 439.604 656.662 442.963 656.662C446.121 656.662 448.577 655.885 450.331 654.331C452.136 652.777 453.038 650.622 453.038 647.865C453.038 645.659 452.436 643.729 451.233 642.075C450.081 640.421 448.401 639.268 446.196 638.617L438.752 636.286C434.993 635.133 432.086 633.203 430.03 630.496C428.025 627.79 427.023 624.607 427.023 620.948C427.023 617.99 427.675 615.434 428.978 613.278C430.331 611.073 432.211 609.369 434.617 608.166C437.023 606.913 439.855 606.286 443.113 606.286C447.925 606.286 451.785 607.639 454.692 610.346C457.599 613.003 459.078 616.562 459.128 621.023H452.361C452.361 618.316 451.534 616.211 449.88 614.707C448.276 613.153 445.995 612.376 443.038 612.376C440.131 612.376 437.85 613.078 436.196 614.481C434.592 615.885 433.79 617.84 433.79 620.346C433.79 622.602 434.391 624.557 435.594 626.211C436.797 627.865 438.527 629.043 440.782 629.745L448.301 632.151C451.96 633.303 454.792 635.258 456.797 638.015C458.802 640.772 459.805 644.005 459.805 647.714C459.805 650.722 459.103 653.353 457.7 655.609C456.296 657.865 454.316 659.619 451.76 660.872C449.253 662.125 446.321 662.752 442.963 662.752ZM481.73 662V607.113H513.309V613.278H488.422V630.271H510.677V636.361H488.422V655.835H513.309V662H481.73Z" fill="white"/>
</g>
<defs>
<filter id="filter1_d_4329_456" x="372.766" y="606.285" width="645.374" height="862.048" filterUnits="userSpaceOnUse" color-interpolation-filters="sRGB">
<feFlood flood-opacity="0" result="BackgroundImageFix"/>
<feColorMatrix in="SourceAlpha" type="matrix" values="0 0 0 0 0 0 0 0 0 0 0 0 0 0 0 0 0 0 127 0" result="hardAlpha"/>
<feOffset dx="322.233" dy="622.983"/>
<feGaussianBlur stdDeviation="91.2992"/>
<feComposite in2="hardAlpha" operator="out"/>
<feColorMatrix type="matrix" values="0 0 0 0 0 0 0 0 0 0 0 0 0 0 0 0 0 0 0.25 0"/>
<feBlend mode="normal" in2="BackgroundImageFix" result="effect1_dropShadow_4329_456"/>
<feBlend mode="normal" in="SourceGraphic" in2="effect1_dropShadow_4329_456" result="shape"/>
</filter>
<linearGradient id="paint0_linear_4329_456" x1="690.247" y1="129.815" x2="679.56" y2="756.224" gradientUnits="userSpaceOnUse">
<stop stop-color="#308F7A"/>
<stop offset="0.390625" stop-color="#24B796"/>
<stop offset="0.744792" stop-color="#18463C"/>
<stop offset="0.953125" stop-color="#125748" stop-opacity="0.475806"/>
</linearGradient>
<linearGradient id="paint1_linear_4329_456" x1="530.165" y1="59.9173" x2="517.102" y2="825.528" gradientUnits="userSpaceOnUse">
<stop stop-color="#308F7A"/>
<stop offset="0.390625" stop-color="#24B796"/>
<stop offset="0.744792" stop-color="#18463C"/>
<stop offset="0.953125" stop-color="#125748" stop-opacity="0.475806"/>
</linearGradient>
<linearGradient id="paint2_linear_4329_456" x1="354.843" y1="59.9173" x2="367.905" y2="825.528" gradientUnits="userSpaceOnUse">
<stop stop-color="#308F7A"/>
<stop offset="0.390625" stop-color="#24B796"/>
<stop offset="0.744792" stop-color="#18463C"/>
<stop offset="0.953125" stop-color="#125748" stop-opacity="0.475806"/>
</linearGradient>
<linearGradient id="paint3_linear_4329_456" x1="194.761" y1="129.815" x2="205.448" y2="756.224" gradientUnits="userSpaceOnUse">
<stop stop-color="#308F7A"/>
<stop offset="0.390625" stop-color="#24B796"/>
<stop offset="0.744792" stop-color="#18463C"/>
<stop offset="0.953125" stop-color="#125748" stop-opacity="0.475806"/>
</linearGradient>
</defs>
</svg>
