<svg width="568" height="568" viewBox="0 0 568 568" fill="none" xmlns="http://www.w3.org/2000/svg">
<circle cx="284" cy="284" r="276" fill="black"/>
<circle cx="284" cy="284" r="276" stroke="url(#paint0_linear_4330_490)" stroke-width="16"/>
<circle cx="284" cy="284" r="276" stroke="black" stroke-opacity="0.2" stroke-width="16"/>
<g opacity="0.37">
<path fill-rule="evenodd" clip-rule="evenodd" d="M61.1602 278.436C61.1602 356.537 124.306 419.872 202.215 419.872H366.106C403.526 419.857 439.408 404.948 465.86 378.424C492.312 351.901 507.168 315.934 507.16 278.436C507.16 200.335 444.014 137 366.106 137H202.215C164.795 137.015 128.913 151.924 102.461 178.447C76.0086 204.971 61.1527 240.937 61.1602 278.436ZM453.838 278.436C453.845 290.455 451.49 302.359 446.906 313.466C442.322 324.573 435.599 334.666 427.122 343.169C418.644 351.672 408.578 358.418 397.499 363.022C386.419 367.626 374.543 369.998 362.549 370.001H205.884C193.885 370.005 182.003 367.639 170.917 363.038C159.831 358.438 149.758 351.693 141.275 343.189C132.792 334.685 126.064 324.589 121.477 313.479C116.889 302.368 114.532 290.46 114.539 278.436C114.535 266.419 116.894 254.518 121.479 243.415C126.065 232.311 132.788 222.221 141.265 213.721C149.742 205.221 159.807 198.477 170.884 193.875C181.962 189.273 193.836 186.902 205.828 186.899H362.521C374.515 186.899 386.392 189.266 397.473 193.867C408.554 198.467 418.622 205.211 427.102 213.711C435.582 222.211 442.307 232.303 446.895 243.408C451.482 254.514 453.841 266.416 453.838 278.436Z" fill="url(#paint1_linear_4330_490)"/>
<path fill-rule="evenodd" clip-rule="evenodd" d="M61.1602 278.436C61.1602 356.537 124.306 419.872 202.215 419.872H366.106C403.526 419.857 439.408 404.948 465.86 378.424C492.312 351.901 507.168 315.934 507.16 278.436C507.16 200.335 444.014 137 366.106 137H202.215C164.795 137.015 128.913 151.924 102.461 178.447C76.0086 204.971 61.1527 240.937 61.1602 278.436ZM453.838 278.436C453.845 290.455 451.49 302.359 446.906 313.466C442.322 324.573 435.599 334.666 427.122 343.169C418.644 351.672 408.578 358.418 397.499 363.022C386.419 367.626 374.543 369.998 362.549 370.001H205.884C193.885 370.005 182.003 367.639 170.917 363.038C159.831 358.438 149.758 351.693 141.275 343.189C132.792 334.685 126.064 324.589 121.477 313.479C116.889 302.368 114.532 290.46 114.539 278.436C114.535 266.419 116.894 254.518 121.479 243.415C126.065 232.311 132.788 222.221 141.265 213.721C149.742 205.221 159.807 198.477 170.884 193.875C181.962 189.273 193.836 186.902 205.828 186.899H362.521C374.515 186.899 386.392 189.266 397.473 193.867C408.554 198.467 418.622 205.211 427.102 213.711C435.582 222.211 442.307 232.303 446.895 243.408C451.482 254.514 453.841 266.416 453.838 278.436Z" fill="black" fill-opacity="0.2"/>
</g>
<path d="M435.664 174.71L273.805 174.71L374.16 279.628L270.284 393.835L435.664 393.835V470.553L159.16 470.553V400.818L267.966 280.575L159.682 167.924V98L435.664 98V174.71Z" fill="white"/>
<g filter="url(#filter0_d_4330_490)">
<path d="M174.46 328.82V230.616H180.751V328.82H174.46ZM192.605 262.034C192.247 258.684 190.738 256.075 188.078 254.208C185.444 252.341 182.017 251.408 177.798 251.408C174.831 251.408 172.286 251.855 170.164 252.751C168.041 253.646 166.417 254.86 165.292 256.395C164.167 257.929 163.591 259.681 163.566 261.65C163.566 263.287 163.936 264.706 164.678 265.908C165.445 267.11 166.481 268.133 167.785 268.977C169.09 269.796 170.535 270.486 172.12 271.049C173.706 271.611 175.304 272.084 176.915 272.468L184.281 274.309C187.247 275 190.099 275.933 192.835 277.11C195.597 278.286 198.065 279.769 200.239 281.56C202.438 283.35 204.177 285.511 205.456 288.043C206.735 290.574 207.374 293.541 207.374 296.942C207.374 301.546 206.197 305.599 203.845 309.103C201.492 312.581 198.091 315.305 193.641 317.274C189.216 319.217 183.859 320.189 177.567 320.189C171.455 320.189 166.149 319.243 161.648 317.35C157.172 315.458 153.668 312.696 151.137 309.064C148.63 305.433 147.275 301.009 147.07 295.792H161.072C161.277 298.528 162.121 300.804 163.604 302.62C165.087 304.436 167.018 305.791 169.396 306.686C171.8 307.581 174.486 308.029 177.452 308.029C180.547 308.029 183.258 307.568 185.585 306.648C187.938 305.702 189.779 304.397 191.109 302.735C192.439 301.047 193.116 299.078 193.142 296.827C193.116 294.781 192.515 293.094 191.339 291.764C190.163 290.408 188.513 289.283 186.39 288.388C184.293 287.467 181.838 286.649 179.025 285.933L170.087 283.631C163.617 281.969 158.502 279.45 154.743 276.074C151.009 272.673 149.142 268.159 149.142 262.533C149.142 257.904 150.395 253.85 152.901 250.372C155.433 246.894 158.873 244.196 163.22 242.278C167.568 240.334 172.491 239.363 177.989 239.363C183.564 239.363 188.449 240.334 192.643 242.278C196.863 244.196 200.175 246.869 202.579 250.295C204.983 253.697 206.223 257.61 206.3 262.034H192.605Z" fill="white"/>
</g>
<defs>
<filter id="filter0_d_4330_490" x="147.07" y="217.271" width="139.237" height="175.229" filterUnits="userSpaceOnUse" color-interpolation-filters="sRGB">
<feFlood flood-opacity="0" result="BackgroundImageFix"/>
<feColorMatrix in="SourceAlpha" type="matrix" values="0 0 0 0 0 0 0 0 0 0 0 0 0 0 0 0 0 0 127 0" result="hardAlpha"/>
<feOffset dx="40.4195" dy="25.1669"/>
<feGaussianBlur stdDeviation="19.2565"/>
<feComposite in2="hardAlpha" operator="out"/>
<feColorMatrix type="matrix" values="0 0 0 0 0 0 0 0 0 0 0 0 0 0 0 0 0 0 0.25 0"/>
<feBlend mode="normal" in2="BackgroundImageFix" result="effect1_dropShadow_4330_490"/>
<feBlend mode="normal" in="SourceGraphic" in2="effect1_dropShadow_4330_490" result="shape"/>
</filter>
<linearGradient id="paint0_linear_4330_490" x1="570.341" y1="283.919" x2="-2.36627" y2="283.919" gradientUnits="userSpaceOnUse">
<stop stop-color="#FF0303"/>
<stop offset="1" stop-color="#371E1E"/>
</linearGradient>
<linearGradient id="paint1_linear_4330_490" x1="508.998" y1="278.396" x2="59.3021" y2="278.396" gradientUnits="userSpaceOnUse">
<stop stop-color="#FF0303"/>
<stop offset="1" stop-color="#371E1E"/>
</linearGradient>
</defs>
</svg>
